<svg width="92" height="84" viewBox="0 0 92 84" fill="none" xmlns="http://www.w3.org/2000/svg">
<path d="M83.5 29.3334H57.2083L61.1666 10.2917L61.2916 8.95835C61.2916 7.25002 60.5833 5.66669 59.4583 4.54169L55.0416 0.166687L27.625 27.625C26.0833 29.125 25.1666 31.2084 25.1666 33.5V75.1667C25.1666 79.75 28.9166 83.5 33.5 83.5H71C74.4583 83.5 77.4166 81.4167 78.6666 78.4167L91.25 49.0417C91.625 48.0834 91.8333 47.0834 91.8333 46V37.6667C91.8333 33.0834 88.0833 29.3334 83.5 29.3334ZM83.5 46L71 75.1667H33.5V33.5L51.5833 15.4167L46.9583 37.6667H83.5V46ZM0.166626 33.5H16.8333V83.5H0.166626V33.5Z" fill="#3077C6"/>
</svg>
