<svg width="880" height="92" viewBox="0 0 880 92" fill="none" xmlns="http://www.w3.org/2000/svg">
<path d="M66.6667 54.1667V70.8333H58.3333V54.1667H66.6667ZM16.6667 54.1667V70.8333H12.5C10.2083 70.8333 8.33333 68.9583 8.33333 66.6667V54.1667H16.6667ZM37.5 0C16.7917 0 0 16.7917 0 37.5V66.6667C0 73.5833 5.58333 79.1667 12.5 79.1667H25V45.8333H8.33333V37.5C8.33333 21.375 21.375 8.33333 37.5 8.33333C53.625 8.33333 66.6667 21.375 66.6667 37.5V45.8333H50V79.1667H66.6667V83.3333H37.5V91.6667H62.5C69.4167 91.6667 75 86.0833 75 79.1667V37.5C75 16.7917 58.2083 0 37.5 0Z" fill="#3077C6"/>
<path d="M129.167 12.3333V41.5H88.2083L83.3333 46.375V12.3333H129.167ZM133.333 4H79.1667C76.875 4 75 5.875 75 8.16667V66.5L91.6667 49.8333H133.333C135.625 49.8333 137.5 47.9583 137.5 45.6667V8.16667C137.5 5.875 135.625 4 133.333 4ZM154.167 20.6667H145.833V58.1667H91.6667V66.5C91.6667 68.7917 93.5417 70.6667 95.8333 70.6667H141.667L158.333 87.3333V24.8333C158.333 22.5417 156.458 20.6667 154.167 20.6667Z" fill="#3077C6"/>
<path d="M174.667 20.3333H249.667V12H174.667C170.083 12 166.333 15.75 166.333 20.3333V66.1667H158V78.6667H216.333V66.1667H174.667V20.3333ZM253.833 28.6667H228.833C226.542 28.6667 224.667 30.5417 224.667 32.8333V74.5C224.667 76.7917 226.542 78.6667 228.833 78.6667H253.833C256.125 78.6667 258 76.7917 258 74.5V32.8333C258 30.5417 256.125 28.6667 253.833 28.6667ZM249.667 66.1667H233V37H249.667V66.1667Z" fill="#3077C6"/>
<path d="M341.333 33.1667H315.042L319 14.125L319.125 12.7917C319.125 11.0833 318.417 9.5 317.292 8.375L312.875 4L285.458 31.4583C283.917 32.9583 283 35.0417 283 37.3333V79C283 83.5833 286.75 87.3333 291.333 87.3333H328.833C332.292 87.3333 335.25 85.25 336.5 82.25L349.083 52.875C349.458 51.9167 349.667 50.9167 349.667 49.8333V41.5C349.667 36.9167 345.917 33.1667 341.333 33.1667ZM341.333 49.8333L328.833 79H291.333V37.3333L309.417 19.25L304.792 41.5H341.333V49.8333ZM258 37.3333H274.667V87.3333H258V37.3333Z" fill="#3077C6"/>
<path d="M350.841 36.0236C350.634 35.6937 350.443 35.2437 350.266 34.6738C350.089 34.1039 350 33.5039 350 32.874C350 31.7042 350.251 30.8643 350.752 30.3543C351.284 29.8444 351.962 29.5894 352.788 29.5894H372.085C372.292 29.9194 372.483 30.3693 372.66 30.9393C372.837 31.5092 372.926 32.1091 372.926 32.739C372.926 33.9089 372.66 34.7488 372.129 35.2587C371.628 35.7687 370.964 36.0236 370.138 36.0236H365.225V56.811C364.9 56.901 364.384 56.991 363.676 57.081C362.997 57.171 362.319 57.216 361.64 57.216C360.961 57.216 360.357 57.156 359.825 57.036C359.324 56.946 358.896 56.766 358.542 56.4961C358.188 56.2261 357.922 55.8511 357.745 55.3712C357.568 54.8913 357.48 54.2613 357.48 53.4814V36.0236H350.841Z" fill="#3077C6"/>
<path d="M381.85 56.946C381.555 57.036 381.083 57.126 380.433 57.216C379.814 57.306 379.165 57.351 378.486 57.351C377.837 57.351 377.247 57.306 376.716 57.216C376.214 57.126 375.786 56.946 375.432 56.676C375.078 56.4061 374.798 56.0461 374.591 55.5962C374.414 55.1162 374.326 54.5013 374.326 53.7514V40.2531C374.326 39.5632 374.444 38.9783 374.68 38.4983C374.945 37.9884 375.314 37.5384 375.786 37.1485C376.258 36.7585 376.834 36.4136 377.512 36.1136C378.22 35.7837 378.973 35.4987 379.769 35.2587C380.566 35.0187 381.392 34.8388 382.248 34.7188C383.104 34.5688 383.959 34.4938 384.815 34.4938C386.231 34.4938 387.352 34.7788 388.179 35.3487C389.005 35.8886 389.418 36.7885 389.418 38.0484C389.418 38.4683 389.359 38.8883 389.241 39.3082C389.123 39.6982 388.975 40.0581 388.798 40.3881C388.179 40.3881 387.544 40.4181 386.895 40.4781C386.246 40.5381 385.612 40.628 384.992 40.748C384.372 40.868 383.782 41.003 383.222 41.153C382.691 41.273 382.233 41.4229 381.85 41.6029V56.946Z" fill="#3077C6"/>
<path d="M392.345 29.0495C392.345 27.9096 392.714 26.9498 393.451 26.1699C394.218 25.39 395.222 25 396.461 25C397.7 25 398.689 25.39 399.426 26.1699C400.193 26.9498 400.577 27.9096 400.577 29.0495C400.577 30.1894 400.193 31.1492 399.426 31.9291C398.689 32.709 397.7 33.099 396.461 33.099C395.222 33.099 394.218 32.709 393.451 31.9291C392.714 31.1492 392.345 30.1894 392.345 29.0495ZM400.223 56.946C399.898 57.006 399.411 57.081 398.762 57.171C398.143 57.291 397.508 57.351 396.859 57.351C396.21 57.351 395.62 57.306 395.089 57.216C394.587 57.126 394.159 56.946 393.805 56.676C393.451 56.4061 393.171 56.0461 392.964 55.5962C392.787 55.1162 392.699 54.5013 392.699 53.7514V35.4387C393.023 35.3787 393.496 35.3037 394.115 35.2137C394.764 35.0937 395.413 35.0337 396.063 35.0337C396.712 35.0337 397.287 35.0787 397.789 35.1687C398.32 35.2587 398.762 35.4387 399.116 35.7087C399.47 35.9786 399.736 36.3536 399.913 36.8335C400.12 37.2835 400.223 37.8834 400.223 38.6333V56.946Z" fill="#3077C6"/>
<path d="M414.883 34.4488C416.653 34.4488 418.29 34.6888 419.795 35.1687C421.33 35.6187 422.643 36.3236 423.734 37.2835C424.826 38.2433 425.682 39.4582 426.301 40.928C426.921 42.3678 427.231 44.0926 427.231 46.1024C427.231 48.0221 426.965 49.7019 426.434 51.1417C425.903 52.5816 425.151 53.7964 424.177 54.7863C423.203 55.7462 422.023 56.4661 420.636 56.946C419.279 57.4259 417.759 57.6659 416.078 57.6659C414.809 57.6659 413.629 57.4709 412.537 57.081V64.5501C412.242 64.64 411.77 64.73 411.121 64.82C410.471 64.94 409.808 65 409.129 65C408.48 65 407.89 64.955 407.359 64.865C406.857 64.775 406.429 64.5951 406.075 64.3251C405.721 64.0551 405.455 63.6802 405.278 63.2002C405.101 62.7503 405.013 62.1504 405.013 61.4004V39.8031C405.013 38.9933 405.175 38.3333 405.5 37.8234C405.854 37.3135 406.326 36.8485 406.916 36.4286C407.831 35.8286 408.967 35.3487 410.324 34.9888C411.681 34.6288 413.201 34.4488 414.883 34.4488ZM414.971 51.6367C418.01 51.6367 419.53 49.7919 419.53 46.1024C419.53 44.1826 419.146 42.7578 418.379 41.8279C417.641 40.898 416.564 40.4331 415.148 40.4331C414.587 40.4331 414.086 40.5081 413.643 40.658C413.201 40.778 412.817 40.928 412.493 41.108V51.0067C412.847 51.1867 413.23 51.3367 413.643 51.4567C414.056 51.5767 414.499 51.6367 414.971 51.6367Z" fill="#3077C6"/>
<path d="M455.466 56.811C455.141 56.901 454.625 56.991 453.917 57.081C453.238 57.171 452.56 57.216 451.881 57.216C451.202 57.216 450.598 57.156 450.066 57.036C449.565 56.946 449.137 56.766 448.783 56.4961C448.429 56.2261 448.163 55.8511 447.986 55.3712C447.809 54.8913 447.721 54.2613 447.721 53.4814V46.4623H439.223V56.811C438.899 56.901 438.382 56.991 437.674 57.081C436.995 57.171 436.317 57.216 435.638 57.216C434.959 57.216 434.355 57.156 433.824 57.036C433.322 56.946 432.894 56.766 432.54 56.4961C432.186 56.2261 431.92 55.8511 431.743 55.3712C431.566 54.8913 431.478 54.2613 431.478 53.4814V29.7244C431.802 29.6644 432.319 29.5894 433.027 29.4994C433.735 29.3795 434.414 29.3195 435.063 29.3195C435.741 29.3195 436.332 29.3795 436.833 29.4994C437.364 29.5894 437.807 29.7694 438.161 30.0394C438.515 30.3093 438.78 30.6843 438.958 31.1642C439.135 31.6442 439.223 32.2741 439.223 33.054V40.2531H447.721V29.7244C448.045 29.6644 448.562 29.5894 449.27 29.4994C449.978 29.3795 450.657 29.3195 451.306 29.3195C451.984 29.3195 452.574 29.3795 453.076 29.4994C453.607 29.5894 454.05 29.7694 454.404 30.0394C454.758 30.3093 455.023 30.6843 455.2 31.1642C455.377 31.6442 455.466 32.2741 455.466 33.054V56.811Z" fill="#3077C6"/>
<path d="M482.901 46.0574C482.901 47.9171 482.621 49.5819 482.06 51.0517C481.499 52.4916 480.703 53.7064 479.67 54.6963C478.667 55.6862 477.457 56.4361 476.041 56.946C474.624 57.4559 473.046 57.7109 471.305 57.7109C469.564 57.7109 467.986 57.4409 466.569 56.901C465.153 56.3611 463.929 55.5962 462.896 54.6063C461.893 53.5864 461.111 52.3566 460.55 50.9168C459.99 49.4769 459.709 47.8571 459.709 46.0574C459.709 44.2876 459.99 42.6828 460.55 41.243C461.111 39.8031 461.893 38.5883 462.896 37.5984C463.929 36.5786 465.153 35.7986 466.569 35.2587C467.986 34.7188 469.564 34.4488 471.305 34.4488C473.046 34.4488 474.624 34.7338 476.041 35.3037C477.457 35.8436 478.667 36.6235 479.67 37.6434C480.703 38.6333 481.499 39.8481 482.06 41.288C482.621 42.7278 482.901 44.3176 482.901 46.0574ZM467.41 46.0574C467.41 47.8871 467.75 49.297 468.428 50.2868C469.136 51.2467 470.11 51.7267 471.349 51.7267C472.589 51.7267 473.533 51.2317 474.182 50.2418C474.861 49.252 475.2 47.8571 475.2 46.0574C475.2 44.2576 474.861 42.8778 474.182 41.9179C473.503 40.928 472.544 40.4331 471.305 40.4331C470.066 40.4331 469.107 40.928 468.428 41.9179C467.75 42.8778 467.41 44.2576 467.41 46.0574Z" fill="#3077C6"/>
<path d="M486.572 35.4387C486.867 35.3487 487.324 35.2587 487.944 35.1687C488.593 35.0787 489.257 35.0337 489.935 35.0337C490.584 35.0337 491.16 35.0787 491.661 35.1687C492.192 35.2587 492.635 35.4387 492.989 35.7087C493.343 35.9786 493.609 36.3536 493.786 36.8335C493.992 37.2835 494.096 37.8834 494.096 38.6333V48.3071C494.096 49.5369 494.391 50.4218 494.981 50.9618C495.571 51.4717 496.427 51.7267 497.548 51.7267C498.226 51.7267 498.772 51.6667 499.185 51.5467C499.628 51.4267 499.967 51.3067 500.203 51.1867V35.4387C500.498 35.3487 500.956 35.2587 501.575 35.1687C502.224 35.0787 502.888 35.0337 503.567 35.0337C504.216 35.0337 504.791 35.0787 505.293 35.1687C505.824 35.2587 506.267 35.4387 506.621 35.7087C506.975 35.9786 507.24 36.3536 507.417 36.8335C507.624 37.2835 507.727 37.8834 507.727 38.6333V52.3116C507.727 53.8114 507.108 54.9363 505.868 55.6862C504.836 56.3461 503.596 56.841 502.151 57.171C500.734 57.5309 499.185 57.7109 497.503 57.7109C495.91 57.7109 494.435 57.5309 493.078 57.171C491.75 56.811 490.599 56.2561 489.625 55.5062C488.652 54.7563 487.899 53.7964 487.368 52.6265C486.837 51.4267 486.572 49.9869 486.572 48.3071V35.4387Z" fill="#3077C6"/>
<path d="M530.478 50.4668C530.478 52.7465 529.637 54.5313 527.955 55.8211C526.273 57.111 523.794 57.7559 520.519 57.7559C519.28 57.7559 518.129 57.6659 517.067 57.4859C516.005 57.306 515.09 57.036 514.323 56.676C513.586 56.2861 512.995 55.8061 512.553 55.2362C512.14 54.6663 511.933 53.9914 511.933 53.2115C511.933 52.4916 512.081 51.8916 512.376 51.4117C512.671 50.9018 513.025 50.4818 513.438 50.1519C514.294 50.6318 515.267 51.0667 516.359 51.4567C517.48 51.8166 518.764 51.9966 520.21 51.9966C521.124 51.9966 521.818 51.8616 522.29 51.5917C522.791 51.3217 523.042 50.9618 523.042 50.5118C523.042 50.0919 522.865 49.7619 522.511 49.5219C522.157 49.282 521.567 49.087 520.741 48.937L519.413 48.667C516.846 48.1571 514.928 47.3622 513.659 46.2823C512.42 45.1725 511.8 43.5977 511.8 41.5579C511.8 40.4481 512.036 39.4432 512.509 38.5433C512.981 37.6434 513.645 36.8935 514.5 36.2936C515.356 35.6937 516.374 35.2287 517.554 34.8988C518.764 34.5688 520.092 34.4038 521.537 34.4038C522.629 34.4038 523.647 34.4938 524.591 34.6738C525.565 34.8238 526.406 35.0637 527.114 35.3937C527.822 35.7237 528.383 36.1586 528.796 36.6985C529.209 37.2085 529.415 37.8234 529.415 38.5433C529.415 39.2332 529.283 39.8331 529.017 40.3431C528.781 40.823 528.471 41.228 528.088 41.5579C527.852 41.4079 527.497 41.258 527.025 41.108C526.553 40.928 526.037 40.778 525.476 40.658C524.916 40.5081 524.34 40.3881 523.75 40.2981C523.19 40.2081 522.673 40.1631 522.201 40.1631C521.227 40.1631 520.475 40.2831 519.944 40.5231C519.413 40.733 519.147 41.078 519.147 41.5579C519.147 41.8879 519.295 42.1579 519.59 42.3678C519.885 42.5778 520.446 42.7728 521.272 42.9528L522.644 43.2677C525.476 43.9276 527.483 44.8425 528.663 46.0124C529.873 47.1522 530.478 48.637 530.478 50.4668Z" fill="#3077C6"/>
<path d="M545.706 57.7109C543.965 57.7109 542.342 57.4709 540.837 56.991C539.362 56.4811 538.064 55.7312 536.942 54.7413C535.851 53.7514 534.98 52.5066 534.331 51.0067C533.712 49.5069 533.402 47.7522 533.402 45.7424C533.402 43.7627 533.712 42.0679 534.331 40.658C534.98 39.2182 535.821 38.0484 536.854 37.1485C537.887 36.2186 539.067 35.5437 540.395 35.1237C541.722 34.6738 543.08 34.4488 544.466 34.4488C546.03 34.4488 547.447 34.6888 548.715 35.1687C550.014 35.6487 551.12 36.3086 552.035 37.1485C552.979 37.9884 553.702 38.9933 554.203 40.1631C554.734 41.333 555 42.6078 555 43.9876C555 45.0075 554.72 45.7874 554.159 46.3273C553.598 46.8673 552.817 47.2122 551.813 47.3622L540.881 49.027C541.206 50.0169 541.87 50.7668 542.873 51.2767C543.876 51.7567 545.027 51.9966 546.325 51.9966C547.535 51.9966 548.671 51.8466 549.733 51.5467C550.825 51.2167 551.71 50.8418 552.389 50.4218C552.861 50.7218 553.259 51.1417 553.584 51.6817C553.908 52.2216 554.071 52.7915 554.071 53.3915C554.071 54.7413 553.451 55.7462 552.212 56.4061C551.268 56.916 550.205 57.261 549.025 57.4409C547.845 57.6209 546.738 57.7109 545.706 57.7109ZM544.466 40.0281C543.758 40.0281 543.139 40.1481 542.608 40.3881C542.106 40.628 541.693 40.943 541.368 41.333C541.044 41.6929 540.793 42.1129 540.616 42.5928C540.468 43.0427 540.38 43.5077 540.35 43.9876L547.919 42.7278C547.83 42.1279 547.506 41.5279 546.945 40.928C546.384 40.3281 545.558 40.0281 544.466 40.0281Z" fill="#3077C6"/>
<path d="M580.61 40.6101V34.3899H574.39L570 30L565.61 34.3899H559.39V40.6101L555 45L559.39 49.3899V55.6101H565.61L570 60L574.39 55.6101H580.61V49.3899L585 45L580.61 40.6101ZM570 52.9576C568.82 52.9576 567.692 52.6923 566.684 52.2281C569.416 50.9682 571.326 48.2096 571.326 45C571.326 41.7905 569.416 39.0318 566.684 37.7719C567.692 37.3077 568.82 37.0424 570 37.0424C574.39 37.0424 577.958 40.6101 577.958 45C577.958 49.3899 574.39 52.9576 570 52.9576Z" fill="white"/>
<path d="M605 25C593.96 25 585 33.96 585 45C585 56.04 593.96 65 605 65C616.04 65 625 56.04 625 45C625 33.96 616.04 25 605 25ZM605 31C608.32 31 611 33.68 611 37C611 40.32 608.32 43 605 43C601.68 43 599 40.32 599 37C599 33.68 601.68 31 605 31ZM605 59.4C600 59.4 595.58 56.84 593 52.96C593.06 48.98 601 46.8 605 46.8C608.98 46.8 616.94 48.98 617 52.96C614.42 56.84 610 59.4 605 59.4Z" fill="white"/>
<path d="M755 65.9999H630C627.25 65.9999 625 63.75 625 61V31C625 28.25 627.25 26 630 26H755C757.75 26 760 28.25 760 31V61C760 63.75 757.75 65.9999 755 65.9999Z" fill="black"/>
<path d="M755 26.8C757.32 26.8 759.2 28.68 759.2 31V61C759.2 63.32 757.32 65.1999 755 65.1999H630C627.68 65.1999 625.8 63.32 625.8 61V31C625.8 28.68 627.68 26.8 630 26.8H755ZM755 26H630C627.25 26 625 28.25 625 31V61C625 63.75 627.25 65.9999 630 65.9999H755C757.75 65.9999 760 63.75 760 61V31C760 28.25 757.75 26 755 26Z" fill="#A6A6A6"/>
<path d="M672.42 36.2399C672.42 37.0799 672.17 37.7499 671.67 38.2399C671.11 38.8299 670.37 39.1299 669.47 39.1299C668.6 39.1299 667.87 38.8299 667.26 38.2299C666.65 37.6299 666.35 36.8799 666.35 35.9999C666.35 35.1099 666.65 34.3699 667.26 33.7699C667.87 33.1699 668.6 32.8699 669.47 32.8699C669.9 32.8699 670.31 32.9499 670.7 33.1199C671.09 33.2899 671.4 33.5099 671.64 33.7899L671.11 34.3199C670.71 33.8499 670.17 33.6099 669.47 33.6099C668.84 33.6099 668.29 33.8299 667.83 34.2799C667.37 34.7199 667.14 35.2999 667.14 36.0099C667.14 36.7199 667.37 37.2999 667.83 37.7399C668.29 38.1799 668.84 38.4099 669.47 38.4099C670.14 38.4099 670.7 38.1899 671.15 37.7399C671.44 37.4499 671.61 37.0399 671.65 36.5199H669.47V35.7999H672.38C672.4 35.9499 672.42 36.0999 672.42 36.2399Z" fill="white" stroke="white" stroke-width="0.2" stroke-miterlimit="10"/>
<path d="M677.03 33.7399H674.3V35.6399H676.76V36.3599H674.3V38.2599H677.03V38.9999H673.53V32.9999H677.03V33.7399V33.7399Z" fill="white" stroke="white" stroke-width="0.2" stroke-miterlimit="10"/>
<path d="M680.28 38.9999H679.51V33.7399H677.83V32.9999H681.95V33.7399H680.27V38.9999H680.28Z" fill="white" stroke="white" stroke-width="0.2" stroke-miterlimit="10"/>
<path d="M684.94 38.9999V32.9999H685.71V38.9999H684.94Z" fill="white" stroke="white" stroke-width="0.2" stroke-miterlimit="10"/>
<path d="M689.13 38.9999H688.36V33.7399H686.68V32.9999H690.8V33.7399H689.12V38.9999H689.13Z" fill="white" stroke="white" stroke-width="0.2" stroke-miterlimit="10"/>
<path d="M698.61 38.2199C698.02 38.8299 697.29 39.1299 696.41 39.1299C695.53 39.1299 694.8 38.8299 694.21 38.2199C693.62 37.6099 693.33 36.8699 693.33 35.9999C693.33 35.1299 693.62 34.3799 694.21 33.7799C694.8 33.1699 695.53 32.8699 696.41 32.8699C697.28 32.8699 698.01 33.1699 698.61 33.7799C699.2 34.3899 699.5 35.1299 699.5 35.9999C699.49 36.8799 699.2 37.6199 698.61 38.2199ZM694.78 37.7199C695.22 38.1699 695.77 38.3899 696.41 38.3899C697.05 38.3899 697.6 38.1699 698.04 37.7199C698.48 37.2699 698.71 36.6999 698.71 35.9999C698.71 35.2999 698.49 34.7299 698.04 34.2799C697.6 33.8299 697.05 33.6099 696.41 33.6099C695.77 33.6099 695.22 33.8299 694.78 34.2799C694.34 34.7299 694.11 35.2999 694.11 35.9999C694.11 36.6999 694.34 37.2699 694.78 37.7199Z" fill="white" stroke="white" stroke-width="0.2" stroke-miterlimit="10"/>
<path d="M700.58 38.9999V32.9999H701.52L704.44 37.6699H704.47L704.44 36.5099V32.9999H705.21V38.9999H704.41L701.36 34.1099H701.33L701.36 35.2699V38.9999H700.58Z" fill="white" stroke="white" stroke-width="0.2" stroke-miterlimit="10"/>
<path d="M693.14 47.75C690.79 47.75 688.87 49.54 688.87 52C688.87 54.45 690.79 56.25 693.14 56.25C695.49 56.25 697.41 54.45 697.41 52C697.41 49.54 695.49 47.75 693.14 47.75ZM693.14 54.58C691.85 54.58 690.74 53.52 690.74 52C690.74 50.47 691.85 49.42 693.14 49.42C694.43 49.42 695.54 50.47 695.54 52C695.54 53.52 694.42 54.58 693.14 54.58ZM683.82 47.75C681.47 47.75 679.55 49.54 679.55 52C679.55 54.45 681.47 56.25 683.82 56.25C686.17 56.25 688.09 54.45 688.09 52C688.09 49.54 686.17 47.75 683.82 47.75ZM683.82 54.58C682.53 54.58 681.42 53.52 681.42 52C681.42 50.47 682.53 49.42 683.82 49.42C685.11 49.42 686.22 50.47 686.22 52C686.22 53.52 685.11 54.58 683.82 54.58ZM672.74 49.06V50.86H677.06C676.93 51.87 676.59 52.62 676.08 53.13C675.45 53.76 674.47 54.45 672.75 54.45C670.09 54.45 668.01 52.31 668.01 49.65C668.01 46.99 670.09 44.8499 672.75 44.8499C674.18 44.8499 675.23 45.4099 676 46.1399L677.27 44.8699C676.19 43.8399 674.76 43.0499 672.74 43.0499C669.1 43.0499 666.04 46.0099 666.04 49.66C666.04 53.3 669.1 56.27 672.74 56.27C674.71 56.27 676.19 55.63 677.35 54.42C678.54 53.23 678.91 51.55 678.91 50.2C678.91 49.78 678.88 49.39 678.81 49.07H672.74V49.06ZM718.05 50.46C717.7 49.51 716.62 47.75 714.41 47.75C712.22 47.75 710.4 49.47 710.4 52C710.4 54.38 712.2 56.25 714.62 56.25C716.57 56.25 717.7 55.06 718.16 54.37L716.71 53.4C716.23 54.11 715.57 54.58 714.62 54.58C713.67 54.58 712.99 54.14 712.56 53.29L718.25 50.94L718.05 50.46ZM712.25 51.88C712.2 50.24 713.52 49.4 714.47 49.4C715.21 49.4 715.84 49.77 716.05 50.3L712.25 51.88ZM707.63 56H709.5V43.4999H707.63V56ZM704.57 48.7H704.5C704.08 48.2 703.28 47.75 702.26 47.75C700.13 47.75 698.18 49.62 698.18 52.02C698.18 54.4 700.13 56.26 702.26 56.26C703.27 56.26 704.08 55.81 704.5 55.29H704.56V55.9C704.56 57.53 703.69 58.4 702.29 58.4C701.15 58.4 700.44 57.58 700.15 56.89L698.52 57.57C698.99 58.7 700.23 60.08 702.29 60.08C704.48 60.08 706.33 58.79 706.33 55.65V48.01H704.56V48.7H704.57ZM702.42 54.58C701.13 54.58 700.05 53.5 700.05 52.02C700.05 50.52 701.13 49.43 702.42 49.43C703.69 49.43 704.69 50.53 704.69 52.02C704.7 53.5 703.7 54.58 702.42 54.58ZM726.81 43.4999H722.34V56H724.21V51.26H726.82C728.89 51.26 730.92 49.76 730.92 47.38C730.92 44.9999 728.87 43.4999 726.81 43.4999ZM726.85 49.52H724.2V45.2299H726.85C728.25 45.2299 729.04 46.3899 729.04 47.37C729.04 48.35 728.25 49.52 726.85 49.52ZM738.39 47.73C737.04 47.73 735.64 48.33 735.06 49.64L736.72 50.33C737.07 49.64 737.73 49.41 738.42 49.41C739.38 49.41 740.37 49.99 740.38 51.02V51.15C740.04 50.96 739.32 50.67 738.43 50.67C736.64 50.67 734.83 51.65 734.83 53.48C734.83 55.15 736.29 56.23 737.93 56.23C739.18 56.23 739.88 55.67 740.31 55.01H740.37V55.98H742.17V51.19C742.18 48.97 740.52 47.73 738.39 47.73ZM738.16 54.58C737.55 54.58 736.7 54.27 736.7 53.52C736.7 52.56 737.76 52.19 738.68 52.19C739.5 52.19 739.89 52.37 740.38 52.61C740.24 53.76 739.24 54.58 738.16 54.58ZM748.74 48L746.6 53.42H746.54L744.32 48H742.31L745.64 55.58L743.74 59.79H745.69L750.82 48H748.74ZM731.94 56H733.81V43.4999H731.94V56Z" fill="white"/>
<path d="M635.44 33.54C635.15 33.85 634.98 34.33 634.98 34.94V57.0599C634.98 57.6799 635.15 58.1599 635.44 58.4599L635.51 58.5299L647.9 46.1499V45.9999V45.8499L635.51 33.47L635.44 33.54Z" fill="url(#paint0_linear)"/>
<path d="M652.03 50.2799L647.9 46.1499V45.9999V45.8499L652.03 41.72L652.12 41.77L657.01 44.55C658.41 45.3399 658.41 46.6399 657.01 47.4399L652.12 50.2199L652.03 50.2799Z" fill="url(#paint1_linear)"/>
<path d="M652.12 50.22L647.9 46L635.44 58.46C635.9 58.95 636.66 59.01 637.52 58.52L652.12 50.22Z" fill="url(#paint2_linear)"/>
<path d="M652.12 41.78L637.51 33.48C636.65 32.99 635.89 33.05 635.43 33.54L647.9 46L652.12 41.78Z" fill="url(#paint3_linear)"/>
<path opacity="0.2" d="M652.03 50.13L637.51 58.38C636.7 58.84 635.97 58.81 635.51 58.39L635.44 58.46L635.51 58.53C635.98 58.95 636.7 58.98 637.51 58.52L652.12 50.22L652.03 50.13Z" fill="black"/>
<path opacity="0.12" d="M635.44 58.3201C635.15 58.0101 634.98 57.5302 634.98 56.9202V57.0702C634.98 57.6901 635.15 58.1701 635.44 58.4701L635.51 58.4001L635.44 58.3201Z" fill="black"/>
<path opacity="0.12" d="M657.01 47.3L652.02 50.1301L652.11 50.2201L657 47.44C657.7 47.04 658.05 46.52 658.05 46C658 46.47 657.65 46.94 657.01 47.3Z" fill="black"/>
<path opacity="0.25" d="M637.51 33.6199L657.01 44.7C657.64 45.06 658 45.52 658.06 46C658.06 45.48 657.71 44.95 657.01 44.56L637.51 33.4799C636.11 32.6899 634.97 33.3499 634.97 34.9499V35.0999C634.97 33.4899 636.12 32.8299 637.51 33.6199Z" fill="white"/>
<path d="M870.135 25.0001H769.535C769.168 25.0001 768.806 25.0001 768.44 25.0021C768.134 25.0041 767.83 25.0099 767.521 25.0148C766.85 25.0227 766.18 25.0818 765.517 25.1915C764.856 25.3037 764.215 25.515 763.616 25.8185C763.018 26.1246 762.472 26.5223 761.998 26.9972C761.52 27.4708 761.122 28.0181 760.819 28.6183C760.515 29.2172 760.305 29.8591 760.194 30.5216C760.083 31.1833 760.023 31.8526 760.015 32.5236C760.006 32.8302 760.005 33.1378 760 33.4444V56.5586C760.005 56.8691 760.006 57.1699 760.015 57.4805C760.023 58.1514 760.083 58.8207 760.194 59.4824C760.304 60.1453 760.515 60.7875 760.819 61.3867C761.122 61.9849 761.52 62.5301 761.998 63.001C762.471 63.478 763.017 63.876 763.616 64.1797C764.215 64.484 764.855 64.6967 765.517 64.8105C766.18 64.9194 766.85 64.9785 767.521 64.9873C767.83 64.9941 768.134 64.998 768.44 64.998C768.806 65 769.168 65 769.535 65H870.135C870.494 65 870.859 65 871.219 64.998C871.523 64.998 871.836 64.9941 872.141 64.9873C872.811 64.9789 873.479 64.9198 874.141 64.8105C874.804 64.6958 875.448 64.4833 876.049 64.1797C876.647 63.8758 877.193 63.4779 877.666 63.001C878.142 62.5282 878.541 61.9835 878.848 61.3867C879.15 60.7871 879.358 60.145 879.467 59.4824C879.578 58.8207 879.64 58.1515 879.652 57.4805C879.656 57.1699 879.656 56.8691 879.656 56.5586C879.664 56.1953 879.664 55.834 879.664 55.4648V34.5362C879.664 34.17 879.664 33.8067 879.656 33.4444C879.656 33.1378 879.656 32.8302 879.652 32.5235C879.64 31.8525 879.578 31.1833 879.467 30.5216C879.358 29.8594 879.149 29.2176 878.848 28.6182C878.23 27.4153 877.252 26.4362 876.049 25.8184C875.448 25.5157 874.804 25.3044 874.141 25.1914C873.48 25.0812 872.811 25.0221 872.141 25.0147C871.836 25.0098 871.523 25.0039 871.219 25.002C870.859 25 870.494 25 870.135 25V25.0001Z" fill="#A6A6A6"/>
<path d="M768.445 64.125C768.14 64.125 767.843 64.1211 767.541 64.1143C766.914 64.1062 766.29 64.0517 765.671 63.9512C765.095 63.852 764.537 63.6673 764.015 63.4033C763.497 63.1416 763.026 62.7983 762.618 62.3867C762.204 61.98 761.859 61.5083 761.597 60.9902C761.333 60.4688 761.149 59.9099 761.054 59.333C760.951 58.7132 760.896 58.0864 760.888 57.4581C760.881 57.2472 760.873 56.545 760.873 56.545V33.4444C760.873 33.4444 760.882 32.753 760.888 32.5499C760.895 31.9226 760.951 31.2968 761.053 30.6778C761.149 30.0994 761.332 29.5389 761.597 29.0157C761.857 28.4981 762.2 28.026 762.612 27.6178C763.023 27.2057 763.496 26.8607 764.014 26.5953C764.535 26.3322 765.092 26.1489 765.667 26.0514C766.288 25.95 766.915 25.8951 767.543 25.8873L768.445 25.8751H871.214L872.127 25.8878C872.75 25.8952 873.371 25.9496 873.985 26.0504C874.566 26.1491 875.13 26.3337 875.656 26.5983C876.694 27.1331 877.539 27.9793 878.071 29.0182C878.332 29.5377 878.512 30.0936 878.606 30.6671C878.71 31.2911 878.768 31.9218 878.78 32.5543C878.783 32.8375 878.783 33.1417 878.783 33.4444C878.791 33.8194 878.791 34.1764 878.791 34.5362V55.4649C878.791 55.8282 878.791 56.1827 878.783 56.5401C878.783 56.8653 878.783 57.1632 878.779 57.4698C878.768 58.0909 878.71 58.7104 878.608 59.3232C878.515 59.9043 878.333 60.4676 878.068 60.9932C877.805 61.5057 877.462 61.9733 877.053 62.3789C876.644 62.7927 876.172 63.138 875.653 63.4014C875.128 63.6674 874.566 63.8528 873.985 63.9512C873.367 64.0522 872.742 64.1067 872.116 64.1143C871.823 64.1211 871.517 64.125 871.219 64.125L870.135 64.127L768.445 64.125Z" fill="black"/>
<path d="M784.769 45.3007C784.78 44.4661 785.001 43.6477 785.413 42.9217C785.825 42.1958 786.414 41.5858 787.125 41.1486C786.674 40.5035 786.078 39.9725 785.385 39.598C784.692 39.2234 783.921 39.0156 783.134 38.991C781.455 38.8147 779.827 39.9958 778.971 39.9958C778.099 39.9958 776.782 39.0085 775.363 39.0376C774.445 39.0673 773.551 39.3341 772.767 39.8122C771.983 40.2903 771.336 40.9632 770.89 41.7655C768.956 45.114 770.399 50.035 772.251 52.7417C773.178 54.067 774.261 55.5475 775.679 55.495C777.066 55.4375 777.584 54.6105 779.258 54.6105C780.917 54.6105 781.403 55.495 782.849 55.4616C784.338 55.4374 785.275 54.1304 786.17 52.7924C786.836 51.8481 787.348 50.8044 787.688 49.6999C786.823 49.3342 786.085 48.722 785.566 47.9397C785.047 47.1574 784.77 46.2396 784.769 45.3007V45.3007Z" fill="white"/>
<path d="M782.037 37.2111C782.849 36.2369 783.249 34.9847 783.152 33.7205C781.912 33.8507 780.767 34.4432 779.944 35.3801C779.542 35.8377 779.234 36.3702 779.038 36.9469C778.842 37.5237 778.761 38.1335 778.8 38.7414C779.421 38.7478 780.034 38.6134 780.595 38.3483C781.155 38.0832 781.649 37.6944 782.037 37.2111Z" fill="white"/>
<path d="M802.302 52.1397H797.569L796.432 55.4962H794.427L798.911 43.0781H800.994L805.477 55.4962H803.438L802.302 52.1397ZM798.059 50.5909H801.811L799.961 45.1436H799.91L798.059 50.5909Z" fill="white"/>
<path d="M815.16 50.9698C815.16 53.7833 813.654 55.5909 811.381 55.5909C810.806 55.621 810.233 55.4884 809.729 55.2083C809.226 54.9282 808.811 54.5118 808.533 54.0069H808.49V58.4913H806.631V46.4425H808.43V47.9483H808.464C808.755 47.4459 809.177 47.0317 809.685 46.7498C810.192 46.468 810.767 46.329 811.347 46.3477C813.645 46.3477 815.16 48.1642 815.16 50.9698ZM813.25 50.9698C813.25 49.1368 812.302 47.9317 810.857 47.9317C809.437 47.9317 808.482 49.1622 808.482 50.9698C808.482 52.7941 809.437 54.0157 810.857 54.0157C812.302 54.0157 813.25 52.8194 813.25 50.9698Z" fill="white"/>
<path d="M825.125 50.9698C825.125 53.7833 823.619 55.5909 821.346 55.5909C820.771 55.621 820.198 55.4884 819.694 55.2083C819.19 54.9282 818.776 54.5118 818.498 54.0069H818.455V58.4913H816.596V46.4425H818.395V47.9483H818.429C818.72 47.4459 819.142 47.0317 819.649 46.7498C820.157 46.468 820.732 46.329 821.312 46.3477C823.61 46.3477 825.125 48.1641 825.125 50.9698ZM823.214 50.9698C823.214 49.1368 822.267 47.9317 820.822 47.9317C819.402 47.9317 818.447 49.1622 818.447 50.9698C818.447 52.7941 819.402 54.0157 820.822 54.0157C822.267 54.0157 823.214 52.8194 823.214 50.9698H823.214Z" fill="white"/>
<path d="M831.71 52.0362C831.848 53.2676 833.044 54.0761 834.679 54.0761C836.246 54.0761 837.373 53.2676 837.373 52.1572C837.373 51.1933 836.693 50.6162 835.083 50.2207L833.474 49.833C831.194 49.2822 830.135 48.2158 830.135 46.4853C830.135 44.3428 832.002 42.8711 834.654 42.8711C837.278 42.8711 839.077 44.3428 839.137 46.4853H837.261C837.149 45.2461 836.124 44.498 834.627 44.498C833.13 44.498 832.106 45.2549 832.106 46.3564C832.106 47.2344 832.76 47.751 834.361 48.1464L835.729 48.4824C838.277 49.0849 839.335 50.1084 839.335 51.9247C839.335 54.248 837.485 55.703 834.541 55.703C831.788 55.703 829.928 54.2822 829.808 52.0361L831.71 52.0362Z" fill="white"/>
<path d="M843.346 44.2999V46.4425H845.068V47.9142H843.346V52.9054C843.346 53.6808 843.691 54.0421 844.448 54.0421C844.652 54.0385 844.856 54.0242 845.059 53.9991V55.462C844.719 55.5256 844.373 55.5544 844.027 55.5479C842.194 55.5479 841.479 54.8594 841.479 53.1036V47.9142H840.163V46.4425H841.479V44.2999H843.346Z" fill="white"/>
<path d="M846.065 50.9699C846.065 48.1212 847.743 46.3312 850.359 46.3312C852.984 46.3312 854.654 48.1212 854.654 50.9699C854.654 53.8263 852.993 55.6085 850.359 55.6085C847.726 55.6085 846.065 53.8263 846.065 50.9699ZM852.76 50.9699C852.76 49.0157 851.865 47.8624 850.359 47.8624C848.853 47.8624 847.959 49.0245 847.959 50.9699C847.959 52.9318 848.853 54.0763 850.359 54.0763C851.865 54.0763 852.76 52.9318 852.76 50.9699H852.76Z" fill="white"/>
<path d="M856.186 46.4425H857.959V47.9835H858.002C858.121 47.5022 858.403 47.0769 858.8 46.779C859.197 46.4811 859.684 46.3288 860.179 46.3478C860.393 46.347 860.607 46.3703 860.816 46.4171V48.1554C860.546 48.0728 860.264 48.0348 859.981 48.0431C859.711 48.0321 859.442 48.0797 859.192 48.1826C858.942 48.2855 858.718 48.4413 858.534 48.6391C858.35 48.837 858.211 49.0724 858.126 49.3291C858.042 49.5857 858.014 49.8576 858.044 50.1261V55.4963H856.186L856.186 46.4425Z" fill="white"/>
<path d="M869.384 52.837C869.134 54.4805 867.534 55.6084 865.486 55.6084C862.852 55.6084 861.217 53.8438 861.217 51.0128C861.217 48.173 862.861 46.3312 865.408 46.3312C867.913 46.3312 869.488 48.0519 869.488 50.7969V51.4337H863.093V51.546C863.064 51.8792 863.105 52.2148 863.216 52.5307C863.326 52.8465 863.502 53.1353 863.732 53.3778C863.963 53.6204 864.242 53.8111 864.552 53.9374C864.861 54.0637 865.195 54.1227 865.529 54.1104C865.968 54.1515 866.409 54.0498 866.785 53.8204C867.162 53.5909 867.455 53.246 867.62 52.837L869.384 52.837ZM863.102 50.1348H867.628C867.645 49.8353 867.6 49.5354 867.495 49.2542C867.39 48.973 867.229 48.7165 867.02 48.5007C866.812 48.285 866.561 48.1146 866.283 48.0004C866.006 47.8862 865.708 47.8306 865.408 47.837C865.105 47.8352 864.805 47.8934 864.525 48.0081C864.245 48.1228 863.99 48.2919 863.776 48.5055C863.562 48.7192 863.392 48.9731 863.276 49.2528C863.16 49.5324 863.101 49.8322 863.102 50.1349V50.1348Z" fill="white"/>
<path d="M797.826 33.7311C798.216 33.7032 798.607 33.762 798.971 33.9035C799.335 34.0449 799.663 34.2654 799.932 34.549C800.2 34.8326 800.403 35.1723 800.524 35.5436C800.645 35.9148 800.683 36.3084 800.634 36.6959C800.634 38.6022 799.604 39.6979 797.826 39.6979H795.671V33.7311H797.826ZM796.598 38.8541H797.723C798.001 38.8707 798.28 38.8251 798.538 38.7205C798.797 38.6158 799.029 38.4549 799.217 38.2493C799.406 38.0438 799.546 37.7988 799.628 37.5322C799.71 37.2655 799.731 36.984 799.69 36.7081C799.728 36.4333 799.705 36.1535 799.621 35.8888C799.538 35.6242 799.398 35.3812 799.21 35.1773C799.022 34.9733 798.791 34.8135 798.534 34.7093C798.277 34.605 798 34.559 797.723 34.5743H796.598V38.8541Z" fill="white"/>
<path d="M801.681 37.4444C801.652 37.1485 801.686 36.8499 801.78 36.5678C801.874 36.2858 802.026 36.0264 802.226 35.8065C802.426 35.5865 802.669 35.4107 802.941 35.2904C803.213 35.1702 803.507 35.108 803.804 35.108C804.101 35.108 804.395 35.1702 804.667 35.2904C804.939 35.4107 805.183 35.5865 805.383 35.8065C805.583 36.0264 805.735 36.2858 805.828 36.5678C805.922 36.8499 805.956 37.1485 805.928 37.4444C805.957 37.7406 805.923 38.0396 805.83 38.3221C805.736 38.6046 805.584 38.8644 805.384 39.0848C805.184 39.3052 804.94 39.4814 804.668 39.6019C804.396 39.7224 804.102 39.7847 803.804 39.7847C803.507 39.7847 803.212 39.7224 802.94 39.6019C802.668 39.4814 802.424 39.3052 802.224 39.0848C802.024 38.8644 801.872 38.6046 801.779 38.3221C801.685 38.0396 801.652 37.7406 801.681 37.4444V37.4444ZM805.014 37.4444C805.014 36.4683 804.575 35.8975 803.806 35.8975C803.033 35.8975 802.599 36.4683 802.599 37.4444C802.599 38.4283 803.033 38.9947 803.806 38.9947C804.575 38.9946 805.014 38.4243 805.014 37.4444H805.014Z" fill="white"/>
<path d="M811.573 39.6979H810.651L809.721 36.3815H809.65L808.724 39.6979H807.811L806.569 35.1949H807.471L808.277 38.631H808.344L809.27 35.1949H810.122L811.048 38.631H811.118L811.921 35.1949H812.81L811.573 39.6979Z" fill="white"/>
<path d="M813.854 35.1949H814.709V35.9102H814.775C814.888 35.6533 815.078 35.4379 815.319 35.2941C815.56 35.1503 815.84 35.0852 816.119 35.1079C816.338 35.0915 816.558 35.1245 816.763 35.2046C816.967 35.2847 817.151 35.4098 817.301 35.5707C817.451 35.7315 817.562 35.924 817.628 36.1338C817.693 36.3436 817.71 36.5654 817.678 36.7828V39.6979H816.789V37.006C816.789 36.2823 816.475 35.9224 815.817 35.9224C815.669 35.9155 815.52 35.9408 815.382 35.9966C815.244 36.0525 815.12 36.1375 815.018 36.2459C814.915 36.3543 814.838 36.4835 814.79 36.6246C814.743 36.7657 814.726 36.9155 814.742 37.0636V39.6979H813.854L813.854 35.1949Z" fill="white"/>
<path d="M819.094 33.4371H819.982V39.6979H819.094V33.4371Z" fill="white"/>
<path d="M821.218 37.4444C821.189 37.1485 821.223 36.8499 821.317 36.5678C821.411 36.2857 821.563 36.0264 821.763 35.8064C821.963 35.5864 822.207 35.4106 822.478 35.2903C822.75 35.17 823.044 35.1079 823.342 35.1079C823.639 35.1079 823.933 35.17 824.205 35.2903C824.477 35.4106 824.72 35.5864 824.92 35.8064C825.12 36.0264 825.272 36.2857 825.366 36.5678C825.46 36.8499 825.494 37.1485 825.465 37.4444C825.494 37.7407 825.461 38.0396 825.367 38.3222C825.273 38.6047 825.122 38.8645 824.922 39.0849C824.722 39.3053 824.478 39.4815 824.206 39.602C823.934 39.7225 823.639 39.7848 823.342 39.7848C823.044 39.7848 822.75 39.7225 822.477 39.602C822.205 39.4815 821.961 39.3053 821.761 39.0849C821.561 38.8645 821.41 38.6047 821.316 38.3222C821.222 38.0396 821.189 37.7407 821.218 37.4444V37.4444ZM824.551 37.4444C824.551 36.4683 824.112 35.8975 823.343 35.8975C822.57 35.8975 822.136 36.4683 822.136 37.4444C822.136 38.4283 822.57 38.9947 823.343 38.9947C824.112 38.9947 824.551 38.4244 824.551 37.4444H824.551Z" fill="white"/>
<path d="M826.401 38.4244C826.401 37.6138 827.004 37.1465 828.076 37.0801L829.295 37.0098V36.6211C829.295 36.1455 828.981 35.877 828.374 35.877C827.877 35.877 827.534 36.0591 827.435 36.3775H826.575C826.666 35.604 827.393 35.1079 828.415 35.1079C829.543 35.1079 830.18 35.6699 830.18 36.6211V39.6979H829.325V39.065H829.254C829.112 39.292 828.911 39.4771 828.674 39.6013C828.436 39.7255 828.17 39.7844 827.902 39.7721C827.713 39.7917 827.522 39.7716 827.341 39.7129C827.16 39.6542 826.994 39.5582 826.852 39.4313C826.711 39.3043 826.598 39.1491 826.52 38.9757C826.442 38.8022 826.402 38.6145 826.401 38.4244V38.4244ZM829.295 38.0396V37.6631L828.196 37.7335C827.576 37.775 827.294 37.9859 827.294 38.3829C827.294 38.7882 827.646 39.024 828.129 39.024C828.271 39.0383 828.414 39.024 828.55 38.982C828.686 38.9399 828.812 38.8708 828.921 38.779C829.03 38.6872 829.119 38.5744 829.183 38.4473C829.248 38.3203 829.286 38.1817 829.295 38.0396V38.0396Z" fill="white"/>
<path d="M831.348 37.4445C831.348 36.0216 832.08 35.1203 833.217 35.1203C833.499 35.1073 833.778 35.1747 834.023 35.3146C834.267 35.4545 834.467 35.6611 834.598 35.9103H834.665V33.4371H835.553V39.6979H834.702V38.9865H834.631C834.49 39.234 834.283 39.438 834.034 39.5765C833.785 39.715 833.502 39.7826 833.217 39.7721C832.072 39.7722 831.348 38.8708 831.348 37.4445ZM832.266 37.4445C832.266 38.3996 832.716 38.9743 833.469 38.9743C834.218 38.9743 834.681 38.3913 834.681 37.4484C834.681 36.5099 834.213 35.9186 833.469 35.9186C832.721 35.9186 832.266 36.4972 832.266 37.4445H832.266Z" fill="white"/>
<path d="M839.23 37.4444C839.202 37.1485 839.236 36.8499 839.329 36.5678C839.423 36.2858 839.575 36.0264 839.775 35.8065C839.975 35.5865 840.219 35.4107 840.49 35.2904C840.762 35.1702 841.056 35.108 841.354 35.108C841.651 35.108 841.945 35.1702 842.217 35.2904C842.489 35.4107 842.732 35.5865 842.932 35.8065C843.132 36.0264 843.284 36.2858 843.378 36.5678C843.472 36.8499 843.505 37.1485 843.477 37.4444C843.506 37.7406 843.472 38.0396 843.379 38.3221C843.285 38.6046 843.134 38.8644 842.934 39.0848C842.734 39.3052 842.49 39.4814 842.218 39.6019C841.945 39.7224 841.651 39.7847 841.354 39.7847C841.056 39.7847 840.762 39.7224 840.489 39.6019C840.217 39.4814 839.973 39.3052 839.773 39.0848C839.573 38.8644 839.422 38.6046 839.328 38.3221C839.235 38.0396 839.201 37.7406 839.23 37.4444V37.4444ZM842.563 37.4444C842.563 36.4683 842.125 35.8975 841.355 35.8975C840.583 35.8975 840.148 36.4683 840.148 37.4444C840.148 38.4283 840.583 38.9947 841.355 38.9947C842.125 38.9946 842.563 38.4243 842.563 37.4444Z" fill="white"/>
<path d="M844.669 35.1949H845.525V35.9102H845.591C845.704 35.6533 845.894 35.4379 846.135 35.2941C846.376 35.1503 846.655 35.0852 846.935 35.1079C847.154 35.0915 847.374 35.1245 847.579 35.2046C847.783 35.2847 847.967 35.4098 848.117 35.5707C848.267 35.7315 848.378 35.924 848.443 36.1338C848.509 36.3436 848.526 36.5654 848.494 36.7828V39.6979H847.605V37.006C847.605 36.2823 847.291 35.9224 846.633 35.9224C846.485 35.9155 846.336 35.9408 846.198 35.9966C846.06 36.0525 845.936 36.1375 845.833 36.2459C845.731 36.3543 845.654 36.4835 845.606 36.6246C845.559 36.7657 845.542 36.9155 845.558 37.0636V39.6979H844.669V35.1949Z" fill="white"/>
<path d="M853.515 34.0739V35.2155H854.491V35.964H853.515V38.2794C853.515 38.7511 853.709 38.9576 854.152 38.9576C854.265 38.9573 854.378 38.9504 854.491 38.9371V39.6774C854.331 39.7059 854.169 39.7211 854.007 39.7228C853.019 39.7228 852.625 39.3751 852.625 38.507V35.964H851.911V35.2154H852.625V34.0739H853.515Z" fill="white"/>
<path d="M855.705 33.4371H856.585V35.9186H856.656C856.774 35.6593 856.969 35.4427 857.215 35.2983C857.461 35.154 857.745 35.0889 858.029 35.1119C858.247 35.1001 858.465 35.1365 858.667 35.2185C858.869 35.3006 859.051 35.4262 859.199 35.5866C859.347 35.7469 859.458 35.938 859.524 36.1461C859.59 36.3542 859.609 36.5743 859.58 36.7907V39.6979H858.69V37.0099C858.69 36.2906 858.355 35.9264 857.727 35.9264C857.574 35.9139 857.421 35.9349 857.277 35.9879C857.133 36.041 857.003 36.1248 856.895 36.2335C856.787 36.3423 856.704 36.4733 856.652 36.6174C856.6 36.7616 856.58 36.9153 856.593 37.068V39.6979H855.705L855.705 33.4371Z" fill="white"/>
<path d="M864.761 38.4821C864.641 38.8936 864.379 39.2496 864.022 39.4878C863.666 39.7259 863.236 39.8311 862.81 39.7848C862.513 39.7926 862.219 39.7358 861.946 39.6183C861.674 39.5008 861.43 39.3253 861.232 39.1042C861.034 38.8831 860.887 38.6215 860.8 38.3377C860.713 38.0538 860.689 37.7545 860.73 37.4606C860.691 37.1657 860.715 36.8657 860.801 36.5811C860.888 36.2964 861.034 36.0336 861.231 35.8105C861.428 35.5875 861.671 35.4093 861.942 35.2881C862.214 35.1669 862.509 35.1054 862.806 35.108C864.059 35.108 864.815 35.964 864.815 37.378V37.6881H861.635V37.7379C861.621 37.9032 861.642 38.0695 861.696 38.2263C861.75 38.383 861.837 38.5267 861.95 38.6482C862.062 38.7696 862.2 38.8662 862.352 38.9316C862.504 38.997 862.669 39.0298 862.834 39.0279C863.047 39.0535 863.262 39.0152 863.453 38.918C863.644 38.8208 863.801 38.669 863.906 38.482L864.761 38.4821ZM861.635 37.0309H863.91C863.921 36.8797 863.9 36.7279 863.849 36.5852C863.798 36.4425 863.718 36.312 863.614 36.2022C863.509 36.0923 863.383 36.0055 863.243 35.9473C863.103 35.8891 862.953 35.8609 862.801 35.8643C862.648 35.8624 862.495 35.8913 862.353 35.9492C862.21 36.0072 862.081 36.093 861.972 36.2017C861.864 36.3105 861.778 36.4398 861.72 36.5822C861.662 36.7246 861.633 36.8772 861.635 37.0309H861.635Z" fill="white"/>
<defs>
<linearGradient id="paint0_linear" x1="646.8" y1="34.7097" x2="630.017" y2="51.4921" gradientUnits="userSpaceOnUse">
<stop stop-color="#00A0FF"/>
<stop offset="0.00657445" stop-color="#00A1FF"/>
<stop offset="0.2601" stop-color="#00BEFF"/>
<stop offset="0.5122" stop-color="#00D2FF"/>
<stop offset="0.7604" stop-color="#00DFFF"/>
<stop offset="1" stop-color="#00E3FF"/>
</linearGradient>
<linearGradient id="paint1_linear" x1="658.834" y1="46.0013" x2="634.638" y2="46.0013" gradientUnits="userSpaceOnUse">
<stop stop-color="#FFE000"/>
<stop offset="0.4087" stop-color="#FFBD00"/>
<stop offset="0.7754" stop-color="#FFA500"/>
<stop offset="1" stop-color="#FF9C00"/>
</linearGradient>
<linearGradient id="paint2_linear" x1="649.827" y1="48.2961" x2="627.069" y2="71.0544" gradientUnits="userSpaceOnUse">
<stop stop-color="#FF3A44"/>
<stop offset="1" stop-color="#C31162"/>
</linearGradient>
<linearGradient id="paint3_linear" x1="632.297" y1="26.1762" x2="642.46" y2="36.3387" gradientUnits="userSpaceOnUse">
<stop stop-color="#32A071"/>
<stop offset="0.0685" stop-color="#2DA771"/>
<stop offset="0.4762" stop-color="#15CF74"/>
<stop offset="0.8009" stop-color="#06E775"/>
<stop offset="1" stop-color="#00F076"/>
</linearGradient>
</defs>
</svg>
